<svg width="24" height="24" viewBox="0 0 24 24" fill="none" xmlns="http://www.w3.org/2000/svg">
<path d="M10 18C10 14 6 12.2958 6 8.83333C6 5.37086 8.68629 3 12 3C15.3137 3 18 5.37086 18 8.83333C18 12.2958 14 14 14 18" stroke="white" stroke-width="1.5" stroke-linecap="round"/>
<path d="M10 19V18.1C10 18.0448 10.0448 18 10.1 18H13.9C13.9552 18 14 18.0448 14 18.1V19C14 20.1046 13.1046 21 12 21C10.8954 21 10 20.1046 10 19Z" stroke="white" stroke-width="1.5" stroke-linecap="round"/>
<path d="M12 17.5V15M12 15L14 12M12 15L10 12" stroke="white" stroke-width="1.5" stroke-linecap="round"/>
<path d="M12 9V11" stroke="white" stroke-width="1.5" stroke-linecap="round"/>
</svg>
