<svg width="24" height="24" viewBox="0 0 24 24" fill="none" xmlns="http://www.w3.org/2000/svg">
<path d="M12.9 14H9.1C9.04477 14 9 14.0448 9 14.1V19.9C9 19.9552 9.04477 20 9.1 20H12.9C12.9552 20 13 19.9552 13 19.9V14.1C13 14.0448 12.9552 14 12.9 14Z" stroke="white" stroke-width="1.5"/>
<path d="M10.4115 2.42841L3.41147 7.524C3.15294 7.7122 3 8.0127 3 8.33248V19C3 19.5523 3.44772 20 4 20H11H18C18.5523 20 19 19.5523 19 19V8.33248C19 8.0127 18.8471 7.7122 18.5885 7.524L11.5885 2.42841C11.2377 2.17305 10.7623 2.17305 10.4115 2.42841Z" stroke="white" stroke-width="1.5" stroke-linecap="square"/>
</svg>
