<svg width="79" height="13" viewBox="0 0 79 13" fill="none" xmlns="http://www.w3.org/2000/svg">
<path fill-rule="evenodd" clip-rule="evenodd" d="M18.8039 0.499931H17.6373C16.9929 0.499931 16.4706 1.00361 16.4706 1.62493V11.3749C16.4706 11.9963 16.9929 12.4999 17.6373 12.4999H18.8039C19.4482 12.4999 19.9706 11.9963 19.9706 11.3749V1.62493C19.9706 1.00361 19.4482 0.499931 18.8039 0.499931ZM12.1471 3.12507H13.3137C13.9581 3.12507 14.4804 3.62875 14.4804 4.25007V11.3751C14.4804 11.9964 13.9581 12.5001 13.3137 12.5001H12.1471C11.5027 12.5001 10.9804 11.9964 10.9804 11.3751V4.25007C10.9804 3.62875 11.5027 3.12507 12.1471 3.12507ZM7.82353 5.74985H6.65686C6.01253 5.74985 5.4902 6.25353 5.4902 6.87485V11.3749C5.4902 11.9962 6.01253 12.4999 6.65686 12.4999H7.82353C8.46786 12.4999 8.9902 11.9962 8.9902 11.3749V6.87485C8.9902 6.25353 8.46786 5.74985 7.82353 5.74985ZM2.33333 7.99982H1.16667C0.522334 7.99982 0 8.5035 0 9.12482V11.3748C0 11.9961 0.522334 12.4998 1.16667 12.4998H2.33333C2.97767 12.4998 3.5 11.9961 3.5 11.3748V9.12482C3.5 8.5035 2.97767 7.99982 2.33333 7.99982Z" fill="white"/>
<path fill-rule="evenodd" clip-rule="evenodd" d="M35.471 2.84599C37.9376 2.8461 40.3098 3.81668 42.0975 5.55712C42.2321 5.69149 42.4472 5.68979 42.5798 5.55332L43.8666 4.2234C43.9337 4.15418 43.9711 4.06042 43.9706 3.96287C43.97 3.86531 43.9315 3.77201 43.8636 3.7036C39.1717 -0.901199 31.7697 -0.901199 27.0777 3.7036C27.0098 3.77196 26.9712 3.86523 26.9706 3.96279C26.97 4.06034 27.0073 4.15413 27.0744 4.2234L28.3615 5.55332C28.494 5.69 28.7094 5.6917 28.8439 5.55712C30.6317 3.81656 33.0042 2.84598 35.471 2.84599ZM35.471 7.17266C36.8262 7.17257 38.1331 7.68843 39.1377 8.61999C39.2735 8.7522 39.4876 8.74933 39.62 8.61353L40.9053 7.28361C40.973 7.21386 41.0105 7.11922 41.0096 7.02089C41.0086 6.92255 40.9691 6.82872 40.9001 6.76039C37.841 3.84629 33.1036 3.84629 30.0446 6.76039C29.9755 6.82872 29.936 6.9226 29.9351 7.02097C29.9342 7.11933 29.9719 7.21396 30.0397 7.28361L31.3247 8.61353C31.4571 8.74933 31.6711 8.7522 31.807 8.61999C32.8109 7.68905 34.1167 7.17323 35.471 7.17266ZM38.0457 10.084C38.0476 10.1826 38.0098 10.2777 37.941 10.3468L35.7178 12.6445C35.6526 12.712 35.5637 12.75 35.471 12.75C35.3783 12.75 35.2895 12.712 35.2243 12.6445L33.0006 10.3468C32.9319 10.2776 32.8942 10.1825 32.8962 10.0839C32.8982 9.98529 32.9399 9.89191 33.0114 9.82581C34.4313 8.59595 36.5108 8.59595 37.9307 9.82581C38.0021 9.89196 38.0437 9.98537 38.0457 10.084Z" fill="white"/>
<g clip-path="url(#clip0_101_292)">
<rect opacity="0.4" x="51.4706" y="0.5" width="24" height="12" rx="3.5" stroke="white"/>
<path opacity="0.5" d="M76.9706 4.5V8.5C77.7765 8.16122 78.3006 7.37313 78.3006 6.5C78.3006 5.62687 77.7765 4.83878 76.9706 4.5Z" fill="white"/>
<rect x="52.9706" y="2" width="17" height="9" rx="2" fill="white"/>
</g>
<defs>
<clipPath id="clip0_101_292">
<rect width="27.33" height="13" fill="white" transform="translate(50.9706)"/>
</clipPath>
</defs>
</svg>
