<svg width="24" height="24" viewBox="0 0 24 24" fill="none" xmlns="http://www.w3.org/2000/svg">
<path d="M6.99356 6.06594C9.03877 5.56775 9.89426 8.05608 12 8.05608C14.1057 8.05608 14.9612 5.56775 17.0064 6.06594C19.025 6.55764 19.681 8.15261 20.5109 10.0462C21.604 12.5401 23.2287 18 20.5109 18H17C15.4671 18 14.1016 15.0009 12 15C9.89605 14.9991 8.07672 18 6.99356 18H3.48906C0.771251 18 2.39604 12.5401 3.48906 10.0462C4.31898 8.15261 4.97498 6.55764 6.99356 6.06594Z" stroke="white" stroke-width="1.5" stroke-linecap="round"/>
<path d="M5.5 12H8.5" stroke="white" stroke-width="1.5" stroke-linecap="round"/>
<path d="M18 11H18.5" stroke="white" stroke-width="1.5" stroke-linecap="round"/>
<path d="M18 13H18.5" stroke="white" stroke-width="1.5" stroke-linecap="round"/>
<path d="M15.5 11H16" stroke="white" stroke-width="1.5" stroke-linecap="round"/>
<path d="M15.5 13H16" stroke="white" stroke-width="1.5" stroke-linecap="round"/>
<path d="M7 10.5V13.5" stroke="white" stroke-width="1.5" stroke-linecap="round"/>
</svg>
